<?xml version="1.0" encoding="utf-8"?>
<!-- Generator: Adobe Illustrator 16.0.0, SVG Export Plug-In . SVG Version: 6.00 Build 0)  -->
<!DOCTYPE svg PUBLIC "-//W3C//DTD SVG 1.1//EN" "http://www.w3.org/Graphics/SVG/1.1/DTD/svg11.dtd">
<svg version="1.1" id="Layer_1" xmlns="http://www.w3.org/2000/svg" xmlns:xlink="http://www.w3.org/1999/xlink" x="0px" y="0px"
	 width="238.999px" height="237.103px" viewBox="623.301 -271.893 238.999 237.103"
	 enable-background="new 623.301 -271.893 238.999 237.103" xml:space="preserve">
<g>
	<g>
		<path fill="#38B2AC" d="M709.708-262.075c2.5-2.107,5.929-2.074,9.013-2.107c40.003,0.078,80.007-0.046,120.011,0.056
			c5.952-0.246,11.398,5.056,11.097,11.051c0.067,28.851,0.033,57.713,0.024,86.565c0.078,5.482-4.396,10.638-9.965,10.85
			c-10.503,0.246-21.015-0.044-31.518,0.09c-3.296-0.024-5.852,2.387-8.597,3.867c-12.913,7.688-25.68,15.625-38.705,23.101
			c-2.388,1.782-5.571-0.425-5.435-3.196c-0.203-7.925,0.009-15.861-0.067-23.785c-13.407-0.057-26.812,0.135-40.218-0.079
			c-6.009-0.133-10.682-6.208-10.087-12.038c0.022-28.079,0.011-56.144,0.011-84.211
			C705.147-255.73,706.525-259.768,709.708-262.075z M712.611-252.828c-0.157,28.347,0,56.694-0.068,85.041
			c-0.268,2.399,1.054,5.256,3.889,4.886c14.191,0.179,28.392-0.089,42.583,0.09c2.242-0.224,3.832,1.849,3.732,3.956
			c0.303,6.95,0,13.91,0.112,20.859c11.914-7.185,23.897-14.303,35.801-21.521c2.657-1.546,5.301-3.688,8.563-3.361
			c9.753,0.011,19.502,0.011,29.244,0.056c2.096,0.157,4.047-0.604,5.919-1.435c0.458-28.829,0.022-57.669,0.236-86.496
			c0.211-2.12-0.483-4.104-1.492-5.918c-41.158-0.482-82.339-0.057-123.508-0.214C715.199-257.2,712.263-255.575,712.611-252.828z"
			/>
	</g>
	<g>
		<path fill="#38B2AC" d="M770.313-237.36c3.24-0.786,6.593-2.164,9.954-1.099c16.387,4.115,32.697,8.564,49.084,12.712
			c2.342,0.493,5.122,1.49,5.335,4.314c-0.067,2.624-2.814,3.296-4.708,4.283c-0.066,3.743,0.246,7.521-0.268,11.254
			c-1.592,2.376-5.336,2.656-6.749-0.045c-0.517-3.172-0.27-6.411-0.292-9.617c-2.208,0.605-4.395,1.232-6.579,1.861
			c-0.067,6.736,0.135,13.483-0.046,20.221c0.102,1.727-0.773,3.362-2.421,4.001c-22.955,8.776-49.128,8.832-72.062-0.046
			c-2.063-0.751-2.478-3.115-2.499-5.043c-0.123-6.423,0.022-12.846-0.011-19.268c-6.143-2.029-12.857-2.478-18.55-5.705
			c0-2.096,0.268-4.785,2.746-5.346C738.84-229.37,754.666-233.022,770.313-237.36z M774.428-230.882
			c-11.872,3.17-23.762,6.231-35.634,9.371c11.749,3.24,23.596,6.099,35.353,9.314c3.654,1.311,7.353-0.156,10.894-1.088
			c10.538-2.678,21.029-5.525,31.552-8.25c-10.311-2.544-20.544-5.414-30.845-7.98C782.038-230.332,778.249-232.249,774.428-230.882
			z M746.517-211.904c-0.09,5.469-0.044,10.929-0.067,16.398c19.996,7.061,42.391,7.127,62.375-0.022
			c-0.022-5.447-0.011-10.907-0.022-16.354c-7.678,1.827-15.257,4.057-22.922,5.94c-3.733,0.853-7.578,2.644-11.433,1.379
			C765.146-207.063,755.832-209.483,746.517-211.904z"/>
	</g>
	<g>
		<path fill="#38B2AC" d="M729.177-143.823c1.638-1.176,3.453,0.369,5.089,0.751c0.707,30.623,0,61.278,0.358,91.9
			c-0.112,2.668,2.096,6.714-1.121,8.271c-3.486,1.793-4.953-2.914-6.904-4.843c-12.543-12.899-28.639-24.277-47.245-24.973
			c-0.1,7.958,0.157,15.918-0.1,23.864c0.155,1.882-1.255,3.733-3.24,3.676c-6.333,0.303-12.709,0.211-19.044,0.032
			c-1.926,0.113-3.374-2.05-3.35-3.822c-0.179-7.936,0.045-15.872-0.078-23.808c-6.758-1.043-12.979-5.346-15.882-11.612
			c-2.108-4.685-2.175-9.975-1.66-14.997c1.02-8.889,8.854-16.388,17.743-17.193c11.5-0.797,23.158,0.84,34.569-1.301
			c12.429-2.814,23.371-10.021,32.707-18.461C723.865-138.7,726.117-141.728,729.177-143.823z M680.128-109.525
			c-0.19,9.841-0.011,19.683-0.1,29.523c18.079,0.897,34.409,10.615,47.301,22.765c-0.101-24.962-0.101-49.934,0-74.896
			C714.247-120.375,698.265-109.995,680.128-109.525z M643.229-98.35c-0.504,4.09-0.315,8.497,1.738,12.183
			c2.074,3.408,5.805,5.862,9.831,6.108c5.975,0.358,11.971,0.046,17.968,0.147c0-9.864,0-19.716,0-29.569
			c-5.997,0.089-11.993-0.192-17.979,0.1C648.979-109.077,643.88-104.1,643.229-98.35z M660.849-72.648
			c0.011,6.77,0.011,13.542,0,20.322c3.688,0.011,7.387,0.011,11.075,0.011c0-6.77,0.011-13.541-0.011-20.31
			C668.225-72.637,664.536-72.637,660.849-72.648z"/>
	</g>
</g>
</svg>
