<svg width="64" height="64" viewBox="0 0 64 64" fill="none" xmlns="http://www.w3.org/2000/svg">
<path d="M31.4168 10.6777C21.2085 10.9279 13.3335 18.5167 13.3335 27.3564V49.2888C13.3335 50.5397 14.9863 51.1234 15.9585 50.2895L18.3891 48.705C18.9724 48.288 19.9446 48.3714 20.4307 48.8718L24.6113 52.9581C25.1946 53.4584 26.2641 53.4584 26.8474 52.9581L30.8335 49.122C31.4168 48.5382 32.4863 48.5382 33.0696 49.122L37.0557 52.9581C37.6391 53.4584 38.7085 53.4584 39.2918 52.9581L43.4724 48.8718C43.9585 48.3714 44.9307 48.288 45.5141 48.705L47.9446 50.2895C48.9168 51.1234 50.6668 50.5397 50.6668 49.2888V26.6058C50.6668 17.5994 41.9168 10.3442 31.4168 10.6777ZM25.7779 29.2744C24.0279 29.2744 22.6668 28.1069 22.6668 26.6058C22.6668 25.1881 24.0279 23.9372 25.7779 23.9372C27.4307 23.9372 28.8891 25.1881 28.8891 26.6058C28.8891 28.1069 27.4307 29.2744 25.7779 29.2744ZM38.2224 29.2744C36.4724 29.2744 35.1113 28.1069 35.1113 26.6058C35.1113 25.1881 36.4724 23.9372 38.2224 23.9372C39.8752 23.9372 41.3335 25.1881 41.3335 26.6058C41.3335 28.1069 39.8752 29.2744 38.2224 29.2744Z" fill="#4A5568"/>
</svg>
